# xmcd
#
# Track frame offsets: 
#        150
#        21592
#        34209
#        50903
#        68978
#        86780
#        100679
#        113144
#        133092
#        149738
#        167260
#
# Disc length: 2438 seconds
#
# Revision: 0
# Processed by: cddbd v1.5.2PL0 Copyright (c) Steve Scherf et al.
# Submitted via: ExactAudioCopy v1.0b1
#
DISCID=a309840b
DTITLE=Útidúr - This mess we've made
DYEAR=2010
DGENRE=Blues
TTITLE0=Fisherman's Friend
TTITLE1=This mess
TTITLE2=Up and down
TTITLE3=Balladan
TTITLE4=Let's make room
TTITLE5=Killer on the run
TTITLE6=The Glow - Retreat
TTITLE7=Mind your stay
TTITLE8=Litblindur
TTITLE9=Until mourning
TTITLE10=Grasping for thoughts
EXTD=
EXTT0=
EXTT1=
EXTT2=
EXTT3=
EXTT4=
EXTT5=
EXTT6=
EXTT7=
EXTT8=
EXTT9=
EXTT10=
PLAYORDER=
